<svg width="174" height="175" viewBox="0 0 174 175" fill="none" xmlns="http://www.w3.org/2000/svg">
<g id="Mask Group">
<mask id="mask0_43_2696" style="mask-type:alpha" maskUnits="userSpaceOnUse" x="0" y="0" width="174" height="175">
<ellipse id="Ellipse 31" cx="87" cy="87.5" rx="87" ry="87.5" fill="#DBE3F5"/>
</mask>
<g mask="url(#mask0_43_2696)">
<g id="Group 81">
<path id="Union" fill-rule="evenodd" clip-rule="evenodd" d="M52.0462 5.89568L21.7353 23.3957C20.6352 24.0308 20.2583 25.4375 20.8934 26.5375C21.5285 27.6376 22.9352 28.0145 24.0353 27.3794L54.3462 9.87939C55.4462 9.24427 55.8232 7.83761 55.188 6.73753C54.5529 5.63746 53.1462 5.26055 52.0462 5.89568ZM21.1353 22.3564C19.4612 23.3229 18.8877 25.4635 19.8542 27.1375C20.8207 28.8116 22.9612 29.3851 24.6353 28.4186L54.9462 10.9186C56.6202 9.95212 57.1938 7.81156 56.2273 6.13753C55.2608 4.46351 53.1202 3.88995 51.4462 4.85645L21.1353 22.3564ZM49.9218 30.216L31.7353 40.716C30.6352 41.3511 30.2583 42.7578 30.8934 43.8578C31.5285 44.9579 32.9352 45.3348 34.0353 44.6997L52.2218 34.1997C53.3219 33.5646 53.6988 32.1579 53.0637 31.0578C52.4285 29.9578 51.0219 29.5809 49.9218 30.216ZM31.1353 39.6768C29.4613 40.6433 28.8877 42.7838 29.8542 44.4578C30.8207 46.1319 32.9613 46.7054 34.6353 45.7389L52.8218 35.2389C54.4958 34.2724 55.0694 32.1319 54.1029 30.4578C53.1364 28.7838 50.9958 28.2103 49.3218 29.1768L31.1353 39.6768ZM-0.0180801 59.049L22.209 46.2162C23.3091 45.5811 24.7157 45.958 25.3509 47.058C25.986 48.1581 25.6091 49.5648 24.509 50.1999L2.28192 63.0327C1.18185 63.6678 -0.22481 63.2909 -0.859938 62.1909C-1.49507 61.0908 -1.11815 59.6841 -0.0180801 59.049ZM-1.89917 62.7909C-2.86567 61.1168 -2.2921 58.9763 -0.61808 58.0098L21.609 45.177C23.283 44.2105 25.4236 44.784 26.3901 46.458C27.3566 48.1321 26.783 50.2726 25.109 51.2391L2.88192 64.0719C1.2079 65.0384 -0.932671 64.4649 -1.89917 62.7909ZM118.975 1.89525L93.8929 16.3766C92.7929 17.0118 92.4159 18.4184 93.0511 19.5185C93.6862 20.6186 95.0929 20.9955 96.1929 20.3604L121.275 5.87897C122.375 5.24384 122.752 3.83719 122.117 2.73712C121.482 1.63704 120.075 1.26013 118.975 1.89525ZM93.2929 15.3374C91.6189 16.3039 91.0453 18.4445 92.0118 20.1185C92.9783 21.7925 95.1189 22.3661 96.7929 21.3996L121.875 6.9182C123.549 5.95171 124.123 3.81113 123.157 2.13711C122.19 0.463085 120.049 -0.110471 118.375 0.856021L93.2929 15.3374ZM6.42439 66.8766L84.3667 21.8766C85.4668 21.2415 86.8734 21.6184 87.5085 22.7185C88.1437 23.8186 87.7668 25.2252 86.6667 25.8604L8.72439 70.8604C7.62432 71.4955 6.21766 71.1186 5.58254 70.0185C4.94741 68.9184 5.32432 67.5118 6.42439 66.8766ZM4.54331 70.6185C3.57681 68.9445 4.15037 66.8039 5.82439 65.8374L83.7667 20.8374C85.4407 19.8709 87.5813 20.4445 88.5478 22.1185C89.5143 23.7925 88.9407 25.9331 87.2667 26.8996L9.32439 71.8996C7.65037 72.8661 5.5098 72.2925 4.54331 70.6185ZM-4.21736 73.0207L-3.1019 72.3767C-2.00183 71.7415 -0.595169 72.1184 0.0399573 73.2185C0.675085 74.3186 0.298175 75.7253 -0.801899 76.3604L-1.91736 77.0044C-3.01743 77.6395 -4.42409 77.2626 -5.05922 76.1625C-5.69435 75.0625 -5.31743 73.6558 -4.21736 73.0207ZM-6.09845 76.7625C-7.06495 75.0885 -6.49139 72.9479 -4.81736 71.9814L-3.7019 71.3374C-2.02788 70.3709 0.112691 70.9445 1.07919 72.6185C2.04569 74.2925 1.47212 76.4331 -0.2019 77.3996L-1.31736 78.0436C-2.99139 79.0101 -5.13195 78.4366 -6.09845 76.7625ZM59.4481 24.716L106.158 -2.25214C107.258 -2.88727 108.665 -2.51036 109.3 -1.41028C109.935 -0.310211 109.558 1.09644 108.458 1.73158L61.7481 28.6997C60.648 29.3348 59.2414 28.9579 58.6062 27.8578C57.9711 26.7578 58.348 25.3511 59.4481 24.716ZM57.567 28.4578C56.6005 26.7838 57.1741 24.6433 58.8481 23.6768L105.558 -3.29137C107.232 -4.25787 109.373 -3.68431 110.339 -2.01028C111.306 -0.336258 110.732 1.80431 109.058 2.77081L62.3481 29.7389C60.6741 30.7054 58.5335 30.1319 57.567 28.4578ZM61.5725 0.395675L69.3402 -4.08902C70.4403 -4.72415 71.8469 -4.34724 72.482 -3.24717C73.1172 -2.14709 72.7403 -0.740435 71.6402 -0.105307L63.8725 4.37939C62.7724 5.01452 61.3657 4.63761 60.7306 3.53753C60.0955 2.43746 60.4724 1.0308 61.5725 0.395675ZM59.6914 4.13753C58.7249 2.46351 59.2984 0.322944 60.9725 -0.643555L68.7402 -5.12825C70.4142 -6.09475 72.5548 -5.52119 73.5213 -3.84717C74.4878 -2.17314 73.9142 -0.0325765 72.2402 0.933923L64.4725 5.41862C62.7984 6.38512 60.6579 5.81156 59.6914 4.13753ZM40.5917 24.0558L-4.44163 50.0558C-5.54171 50.691 -5.91862 52.0976 -5.28349 53.1977C-4.64836 54.2978 -3.24171 54.6747 -2.14163 54.0395L42.8917 28.0395C43.9918 27.4044 44.3687 25.9978 43.7335 24.8977C43.0984 23.7976 41.6918 23.4207 40.5917 24.0558ZM-5.04163 49.0166C-6.71566 49.9831 -7.28922 52.1237 -6.32272 53.7977C-5.35622 55.4717 -3.21566 56.0453 -1.54163 55.0788L43.4917 29.0788C45.1657 28.1123 45.7393 25.9717 44.7728 24.2977C43.8063 22.6237 41.6657 22.0501 39.9917 23.0166L-5.04163 49.0166ZM50.118 18.5558L81.2949 0.555829C82.395 -0.0792954 83.8016 0.29762 84.4367 1.39769C85.0719 2.49777 84.695 3.90442 83.5949 4.53955L52.418 22.5395C51.3179 23.1747 49.9112 22.7978 49.2761 21.6977C48.641 20.5976 49.0179 19.191 50.118 18.5558ZM48.2369 22.2977C47.2704 20.6237 47.8439 18.4831 49.518 17.5166L80.6949 -0.483402C82.3689 -1.44989 84.5095 -0.876337 85.476 0.797687C86.4425 2.47171 85.8689 4.61229 84.1949 5.57878L53.018 23.5788C51.3439 24.5453 49.2034 23.9717 48.2369 22.2977ZM95.2686 -7.51193L90.8212 -4.94417C89.7211 -4.30904 89.3442 -2.90238 89.9793 -1.80231C90.6144 -0.702234 92.0211 -0.325326 93.1212 -0.96045L97.5686 -3.52821C98.6687 -4.16334 99.0456 -5.57 98.4105 -6.67007C97.7754 -7.77015 96.3687 -8.14706 95.2686 -7.51193ZM90.2212 -5.9834C88.5471 -5.0169 87.9736 -2.87633 88.9401 -1.20231C89.9066 0.471716 92.0471 1.04528 93.7212 0.0787813L98.1686 -2.48898C99.8427 -3.45548 100.416 -5.59605 99.4497 -7.27007C98.4832 -8.9441 96.3427 -9.51766 94.6686 -8.55116L90.2212 -5.9834ZM1.8981 81.0368L49.5295 53.5368C50.6296 52.9017 52.0362 53.2786 52.6714 54.3787C53.3065 55.4787 52.9296 56.8854 51.8295 57.5205L4.1981 85.0205C3.09803 85.6556 1.69137 85.2787 1.05624 84.1786C0.421117 83.0786 0.79803 81.6719 1.8981 81.0368ZM0.0170135 84.7786C-0.949484 83.1046 -0.375922 80.9641 1.2981 79.9976L48.9295 52.4976C50.6035 51.5311 52.7441 52.1046 53.7106 53.7786C54.6771 55.4527 54.1035 57.5932 52.4295 58.5597L4.7981 86.0597C3.12408 87.0262 0.983513 86.4527 0.0170135 84.7786ZM84.1705 33.5368L59.0558 48.0368C57.9557 48.6719 57.5788 50.0786 58.2139 51.1787C58.8491 52.2787 60.2557 52.6556 61.3558 52.0205L86.4705 37.5205C87.5706 36.8854 87.9475 35.4787 87.3124 34.3786C86.6773 33.2786 85.2706 32.9017 84.1705 33.5368ZM58.4558 46.9976C56.7818 47.9641 56.2082 50.1046 57.1747 51.7786C58.1412 53.4527 60.2818 54.0262 61.9558 53.0597L87.0705 38.5597C88.7445 37.5932 89.3181 35.4527 88.3516 33.7786C87.3851 32.1046 85.2445 31.5311 83.5705 32.4976L58.4558 46.9976ZM93.6968 28.0368L129.62 7.2968C130.72 6.66167 132.126 7.03859 132.761 8.13866C133.396 9.23874 133.02 10.6454 131.92 11.2805L95.9968 32.0205C94.8967 32.6556 93.4901 32.2787 92.8549 31.1787C92.2198 30.0786 92.5967 28.6719 93.6968 28.0368ZM91.8157 31.7786C90.8492 30.1046 91.4228 27.9641 93.0968 26.9976L129.02 6.25757C130.694 5.29107 132.834 5.86464 133.801 7.53866C134.767 9.21269 134.194 11.3533 132.52 12.3198L96.5968 33.0597C94.9228 34.0262 92.7822 33.4527 91.8157 31.7786ZM109.367 65.1779L31.4244 110.178C30.3243 110.813 29.9474 112.22 30.5825 113.32C31.2177 114.42 32.6243 114.797 33.7244 114.162L111.667 69.1616C112.767 68.5265 113.144 67.1198 112.509 66.0198C111.873 64.9197 110.467 64.5428 109.367 65.1779ZM30.8244 109.139C29.1504 110.105 28.5768 112.246 29.5433 113.92C30.5098 115.594 32.6504 116.167 34.3244 115.201L112.267 70.2009C113.941 69.2344 114.514 67.0938 113.548 65.4198C112.581 63.7457 110.441 63.1722 108.767 64.1387L30.8244 109.139ZM7.17567 124.178L21.8981 115.678C22.9982 115.043 24.4048 115.42 25.04 116.52C25.6751 117.62 25.2982 119.026 24.1981 119.662L9.47568 128.162C8.3756 128.797 6.96894 128.42 6.33382 127.32C5.69869 126.22 6.0756 124.813 7.17567 124.178ZM5.29459 127.92C4.32809 126.246 4.90165 124.105 6.57567 123.139L21.2981 114.639C22.9721 113.672 25.1127 114.246 26.0792 115.92C27.0457 117.594 26.4721 119.734 24.7981 120.701L10.0757 129.201C8.40165 130.167 6.26108 129.594 5.29459 127.92ZM163.926 33.6779L118.893 59.6779C117.793 60.313 117.416 61.7197 118.051 62.8198C118.686 63.9198 120.093 64.2967 121.193 63.6616L166.226 37.6616C167.326 37.0265 167.703 35.6198 167.068 34.5198C166.433 33.4197 165.026 33.0428 163.926 33.6779ZM118.293 58.6387C116.619 59.6052 116.045 61.7457 117.012 63.4198C117.978 65.0938 120.119 65.6674 121.793 64.7009L166.826 38.7009C168.5 37.7344 169.074 35.5938 168.107 33.9198C167.141 32.2457 165 31.6722 163.326 32.6387L118.293 58.6387ZM2.17567 115.517L47.209 89.5173C48.3091 88.8821 49.7157 89.259 50.3509 90.3591C50.986 91.4592 50.6091 92.8658 49.509 93.501L4.47568 119.501C3.3756 120.136 1.96895 119.759 1.33382 118.659C0.698689 117.559 1.0756 116.152 2.17567 115.517ZM0.294587 119.259C-0.671913 117.585 -0.0983485 115.445 1.57568 114.478L46.609 88.478C48.283 87.5115 50.4236 88.0851 51.3901 89.7591C52.3566 91.4331 51.783 93.5737 50.109 94.5402L5.07568 120.54C3.40165 121.507 1.26109 120.933 0.294587 119.259ZM74.9218 73.5173L56.7353 84.0173C55.6352 84.6524 55.2583 86.059 55.8934 87.1591C56.5285 88.2592 57.9352 88.6361 59.0353 88.001L77.2218 77.501C78.3219 76.8658 78.6988 75.4592 78.0637 74.3591C77.4285 73.259 76.0219 72.8821 74.9218 73.5173ZM56.1353 82.978C54.4613 83.9445 53.8877 86.0851 54.8542 87.7591C55.8207 89.4331 57.9613 90.0067 59.6353 89.0402L77.8218 78.5402C79.4958 77.5737 80.0694 75.4331 79.1029 73.7591C78.1364 72.0851 75.9958 71.5115 74.3218 72.478L56.1353 82.978ZM84.4481 68.0173L156 26.7065C157.1 26.0714 158.507 26.4483 159.142 27.5484C159.777 28.6484 159.401 30.0551 158.3 30.6902L86.7481 72.001C85.648 72.6361 84.2414 72.2592 83.6062 71.1591C82.9711 70.059 83.348 68.6524 84.4481 68.0173ZM82.567 71.7591C81.6005 70.0851 82.1741 67.9445 83.8481 66.978L155.4 25.6673C157.074 24.7008 159.215 25.2743 160.182 26.9484C161.148 28.6224 160.574 30.7629 158.9 31.7295L87.3481 73.0402C85.6741 74.0067 83.5335 73.4331 82.567 71.7591ZM37.209 72.1971L-2.57625 95.1672C-3.67632 95.8023 -4.05323 97.2089 -3.41811 98.309C-2.78298 99.4091 -1.37632 99.786 -0.276249 99.1509L39.509 76.1809C40.6091 75.5457 40.986 74.1391 40.3509 73.039C39.7157 71.9389 38.3091 71.562 37.209 72.1971ZM-3.17625 94.1279C-4.85027 95.0944 -5.42383 97.235 -4.45734 98.909C-3.49084 100.583 -1.35027 101.157 0.323752 100.19L40.109 77.2201C41.783 76.2536 42.3566 74.113 41.3901 72.439C40.4236 70.765 38.283 70.1914 36.609 71.1579L-3.17625 94.1279ZM46.7353 66.6969L77.0462 49.1969C78.1462 48.5618 79.5529 48.9387 80.188 50.0388C80.8232 51.1389 80.4462 52.5455 79.3462 53.1807L49.0353 70.6807C47.9352 71.3158 46.5285 70.9389 45.8934 69.8388C45.2583 68.7387 45.6352 67.3321 46.7353 66.6969ZM44.8542 70.4388C43.8877 68.7648 44.4612 66.6242 46.1353 65.6577L76.4462 48.1577C78.1202 47.1912 80.2608 47.7648 81.2273 49.4388C82.1938 51.1128 81.6202 53.2534 79.9462 54.2199L49.6353 71.7199C47.9612 72.6864 45.8207 72.1128 44.8542 70.4388ZM138.151 13.9181L86.5725 43.6969C85.4724 44.3321 85.0955 45.7387 85.7306 46.8388C86.3657 47.9389 87.7724 48.3158 88.8725 47.6807L140.451 17.9018C141.551 17.2667 141.928 15.86 141.293 14.76C140.658 13.6599 139.251 13.283 138.151 13.9181ZM85.9725 42.6577C84.2984 43.6242 83.7249 45.7648 84.6914 47.4388C85.6579 49.1128 87.7984 49.6864 89.4725 48.7199L141.051 18.941C142.725 17.9745 143.299 15.834 142.332 14.16C141.366 12.4859 139.225 11.9124 137.551 12.8789L85.9725 42.6577ZM20.5584 93.3571L65.5917 67.3571C66.6918 66.722 68.0984 67.0989 68.7335 68.199C69.3687 69.299 68.9918 70.7057 67.8917 71.3408L22.8584 97.3408C21.7583 97.9759 20.3516 97.599 19.7165 96.499C19.0814 95.3989 19.4583 93.9922 20.5584 93.3571ZM18.6773 97.099C17.7108 95.4249 18.2843 93.2844 19.9584 92.3179L64.9917 66.3179C66.6657 65.3514 68.8063 65.9249 69.7728 67.599C70.7393 69.273 70.1657 71.4136 68.4917 72.3801L23.4584 98.3801C21.7843 99.3466 19.6438 98.773 18.6773 97.099ZM106.295 43.8571L75.118 61.8571C74.0179 62.4922 73.641 63.8989 74.2761 64.999C74.9112 66.099 76.3179 66.4759 77.418 65.8408L108.595 47.8408C109.695 47.2057 110.072 45.799 109.437 44.699C108.802 43.5989 107.395 43.222 106.295 43.8571ZM74.518 60.8179C72.8439 61.7844 72.2704 63.9249 73.2369 65.599C74.2034 67.273 76.3439 67.8466 78.018 66.8801L109.195 48.88C110.869 47.9136 111.442 45.773 110.476 44.099C109.509 42.4249 107.369 41.8514 105.695 42.8179L74.518 60.8179ZM115.821 38.3571L147.606 20.0059C148.706 19.3708 150.113 19.7477 150.748 20.8478C151.383 21.9479 151.006 23.3545 149.906 23.9896L118.121 42.3408C117.021 42.976 115.614 42.599 114.979 41.499C114.344 40.3989 114.721 38.9922 115.821 38.3571ZM113.94 42.099C112.974 40.4249 113.547 38.2844 115.221 37.3179L147.006 18.9667C148.68 18.0002 150.821 18.5738 151.787 20.2478C152.754 21.9218 152.18 24.0624 150.506 25.0289L118.721 43.3801C117.047 44.3466 114.907 43.773 113.94 42.099ZM11.0321 98.8571L-2.82432 106.857C-3.9244 107.492 -4.30131 108.899 -3.66618 109.999C-3.03106 111.099 -1.6244 111.476 -0.524323 110.841L13.3321 102.841C14.4322 102.206 14.8091 100.799 14.1739 99.699C13.5388 98.5989 12.1322 98.222 11.0321 98.8571ZM-3.42432 105.818C-5.09835 106.784 -5.67191 108.925 -4.70541 110.599C-3.73891 112.273 -1.59835 112.847 0.0756756 111.88L13.9321 103.88C15.6061 102.914 16.1797 100.773 15.2132 99.099C14.2467 97.4249 12.1061 96.8514 10.4321 97.8179L-3.42432 105.818ZM66.7353 101.338L114.367 73.8381C115.467 73.2029 116.873 73.5798 117.509 74.6799C118.144 75.78 117.767 77.1867 116.667 77.8218L69.0353 105.322C67.9352 105.957 66.5285 105.58 65.8934 104.48C65.2583 103.38 65.6352 101.973 66.7353 101.338ZM64.8542 105.08C63.8877 103.406 64.4613 101.265 66.1353 100.299L113.767 72.7988C115.441 71.8323 117.581 72.4059 118.548 74.0799C119.514 75.7539 118.941 77.8945 117.267 78.861L69.6353 106.361C67.9613 107.328 65.8207 106.754 64.8542 105.08ZM163.73 45.3381L138.615 59.8381C137.515 60.4732 137.138 61.8798 137.774 62.9799C138.409 64.08 139.815 64.4569 140.915 63.8218L166.03 49.3218C167.13 48.6866 167.507 47.28 166.872 46.1799C166.237 45.0798 164.83 44.7029 163.73 45.3381ZM138.015 58.7988C136.341 59.7653 135.768 61.9059 136.734 63.5799C137.701 65.2539 139.841 65.8275 141.515 64.861L166.63 50.361C168.304 49.3945 168.878 47.2539 167.911 45.5799C166.945 43.9059 164.804 43.3323 163.13 44.2988L138.015 58.7988ZM12.1757 132.838L57.209 106.838C58.3091 106.203 59.7157 106.58 60.3509 107.68C60.986 108.78 60.6091 110.187 59.509 110.822L14.4757 136.822C13.3756 137.457 11.9689 137.08 11.3338 135.98C10.6987 134.88 11.0756 133.473 12.1757 132.838ZM10.2946 136.58C9.32809 134.906 9.90165 132.765 11.5757 131.799L56.609 105.799C58.283 104.832 60.4236 105.406 61.3901 107.08C62.3566 108.754 61.783 110.895 60.109 111.861L15.0757 137.861C13.4017 138.828 11.2611 138.254 10.2946 136.58ZM134.367 108.479L56.4244 153.479C55.3243 154.114 54.9474 155.521 55.5825 156.621C56.2177 157.721 57.6243 158.098 58.7244 157.463L136.667 112.463C137.767 111.828 138.144 110.421 137.509 109.321C136.873 108.221 135.467 107.844 134.367 108.479ZM55.8244 152.44C54.1504 153.406 53.5768 155.547 54.5433 157.221C55.5098 158.895 57.6504 159.469 59.3244 158.502L137.267 113.502C138.941 112.536 139.514 110.395 138.548 108.721C137.581 107.047 135.441 106.473 133.767 107.44L55.8244 152.44ZM40.633 162.596L46.8981 158.979C47.9981 158.344 49.4048 158.721 50.0399 159.821C50.6751 160.921 50.2981 162.328 49.1981 162.963L42.933 166.58C41.8329 167.215 40.4262 166.838 39.7911 165.738C39.156 164.638 39.5329 163.231 40.633 162.596ZM38.7519 166.338C37.7854 164.664 38.3589 162.524 40.033 161.557L46.2981 157.94C47.9721 156.973 50.1127 157.547 51.0792 159.221C52.0457 160.895 51.4721 163.036 49.7981 164.002L43.533 167.619C41.8589 168.586 39.7184 168.012 38.7519 166.338ZM175.857 84.5248L143.893 102.979C142.793 103.614 142.416 105.021 143.051 106.121C143.686 107.221 145.093 107.598 146.193 106.963L178.157 88.5085C179.257 87.8734 179.634 86.4667 178.999 85.3667C178.364 84.2666 176.957 83.8897 175.857 84.5248ZM143.293 101.94C141.619 102.906 141.045 105.047 142.012 106.721C142.978 108.395 145.119 108.969 146.793 108.002L178.757 89.5477C180.431 88.5812 181.004 86.4407 180.038 84.7667C179.071 83.0926 176.931 82.5191 175.257 83.4856L143.293 101.94ZM32.8302 155.554L72.209 132.819C73.309 132.183 74.7157 132.56 75.3508 133.66C75.986 134.76 75.609 136.167 74.509 136.802L35.1302 159.538C34.0301 160.173 32.6234 159.796 31.9883 158.696C31.3532 157.596 31.7301 156.189 32.8302 155.554ZM30.9491 159.296C29.9826 157.622 30.5561 155.481 32.2302 154.515L71.609 131.779C73.283 130.813 75.4236 131.386 76.3901 133.06C77.3566 134.734 76.783 136.875 75.109 137.841L35.7302 160.577C34.0561 161.543 31.9156 160.97 30.9491 159.296ZM99.9218 116.819L81.7353 127.319C80.6352 127.954 80.2583 129.36 80.8934 130.46C81.5285 131.56 82.9352 131.937 84.0353 131.302L102.222 120.802C103.322 120.167 103.699 118.76 103.064 117.66C102.429 116.56 101.022 116.183 99.9218 116.819ZM81.1353 126.279C79.4613 127.246 78.8877 129.386 79.8542 131.06C80.8207 132.734 82.9613 133.308 84.6353 132.341L102.822 121.841C104.496 120.875 105.069 118.734 104.103 117.06C103.136 115.386 100.996 114.813 99.3218 115.779L81.1353 126.279ZM109.448 111.319L174.35 73.8475C175.45 73.2124 176.857 73.5893 177.492 74.6894C178.127 75.7895 177.75 77.1961 176.65 77.8312L111.748 115.302C110.648 115.937 109.241 115.56 108.606 114.46C107.971 113.36 108.348 111.954 109.448 111.319ZM107.567 115.06C106.601 113.386 107.174 111.246 108.848 110.279L173.75 72.8083C175.424 71.8418 177.564 72.4154 178.531 74.0894C179.497 75.7634 178.924 77.904 177.25 78.8705L112.348 116.341C110.674 117.308 108.534 116.734 107.567 115.06ZM62.209 115.498L17.1757 141.498C16.0756 142.133 15.6987 143.54 16.3338 144.64C16.9689 145.74 18.3756 146.117 19.4757 145.482L64.509 119.482C65.6091 118.847 65.986 117.44 65.3509 116.34C64.7157 115.24 63.3091 114.863 62.209 115.498ZM16.5757 140.459C14.9017 141.425 14.3281 143.566 15.2946 145.24C16.2611 146.914 18.4017 147.488 20.0757 146.521L65.109 120.521C66.783 119.555 67.3566 117.414 66.3901 115.74C65.4236 114.066 63.283 113.492 61.609 114.459L16.5757 140.459ZM71.7353 109.998L102.046 92.4982C103.146 91.8631 104.553 92.24 105.188 93.3401C105.823 94.4401 105.446 95.8468 104.346 96.4819L74.0353 113.982C72.9352 114.617 71.5285 114.24 70.8934 113.14C70.2583 112.04 70.6352 110.633 71.7353 109.998ZM69.8542 113.74C68.8877 112.066 69.4612 109.925 71.1353 108.959L101.446 91.459C103.12 90.4925 105.261 91.066 106.227 92.7401C107.194 94.4141 106.62 96.5547 104.946 97.5212L74.6353 115.021C72.9612 115.988 70.8207 115.414 69.8542 113.74ZM171.328 52.4982L111.572 86.9982C110.472 87.6333 110.095 89.04 110.731 90.1401C111.366 91.2401 112.772 91.6171 113.872 90.9819L173.628 56.4819C174.728 55.8468 175.105 54.4401 174.47 53.3401C173.835 52.24 172.428 51.8631 171.328 52.4982ZM110.972 85.959C109.298 86.9255 108.725 89.066 109.691 90.7401C110.658 92.4141 112.798 92.9877 114.472 92.0212L174.228 57.5212C175.902 56.5547 176.476 54.4141 175.509 52.7401C174.543 51.066 172.402 50.4925 170.728 51.459L110.972 85.959ZM45.5584 136.658L90.5917 110.658C91.6918 110.023 93.0984 110.4 93.7335 111.5C94.3687 112.6 93.9918 114.007 92.8917 114.642L47.8584 140.642C46.7583 141.277 45.3516 140.9 44.7165 139.8C44.0814 138.7 44.4583 137.293 45.5584 136.658ZM43.6773 140.4C42.7108 138.726 43.2843 136.586 44.9584 135.619L89.9917 109.619C91.6657 108.653 93.8063 109.226 94.7728 110.9C95.7393 112.574 95.1657 114.715 93.4917 115.681L48.4584 141.681C46.7843 142.648 44.6438 142.074 43.6773 140.4ZM131.295 87.1584L100.118 105.158C99.0179 105.793 98.641 107.2 99.2761 108.3C99.9112 109.4 101.318 109.777 102.418 109.142L133.595 91.1421C134.695 90.507 135.072 89.1003 134.437 88.0002C133.802 86.9002 132.395 86.5232 131.295 87.1584ZM99.518 104.119C97.8439 105.086 97.2704 107.226 98.2369 108.9C99.2034 110.574 101.344 111.148 103.018 110.181L134.195 92.1813C135.869 91.2148 136.442 89.0742 135.476 87.4002C134.509 85.7262 132.369 85.1526 130.695 86.1191L99.518 104.119ZM140.821 81.6584L173.73 62.6584C174.83 62.0232 176.237 62.4002 176.872 63.5002C177.507 64.6003 177.13 66.007 176.03 66.6421L143.121 85.6421C142.021 86.2772 140.614 85.9003 139.979 84.8002C139.344 83.7002 139.721 82.2935 140.821 81.6584ZM138.94 85.4002C137.974 83.7262 138.547 81.5856 140.221 80.6191L173.13 61.6191C174.804 60.6526 176.945 61.2262 177.911 62.9002C178.878 64.5743 178.304 66.7148 176.63 67.6813L143.721 86.6813C142.047 87.6478 139.907 87.0743 138.94 85.4002ZM36.0321 142.158L22.1757 150.158C21.0756 150.793 20.6987 152.2 21.3338 153.3C21.9689 154.4 23.3756 154.777 24.4757 154.142L38.3321 146.142C39.4322 145.507 39.8091 144.1 39.1739 143C38.5388 141.9 37.1322 141.523 36.0321 142.158ZM21.5757 149.119C19.9017 150.086 19.3281 152.226 20.2946 153.9C21.2611 155.574 23.4017 156.148 25.0757 155.181L38.9321 147.181C40.6061 146.215 41.1797 144.074 40.2132 142.4C39.2467 140.726 37.1061 140.153 35.4321 141.119L21.5757 149.119ZM123.893 68.3381L129.089 65.3381C130.189 64.7029 131.596 65.0798 132.231 66.1799C132.866 67.28 132.489 68.6867 131.389 69.3218L126.193 72.3218C125.093 72.9569 123.686 72.58 123.051 71.4799C122.416 70.3798 122.793 68.9732 123.893 68.3381ZM122.012 72.0799C121.045 70.4059 121.619 68.2653 123.293 67.2988L128.489 64.2988C130.163 63.3323 132.304 63.9059 133.27 65.5799C134.237 67.2539 133.663 69.3945 131.989 70.361L126.793 73.361C125.119 74.3275 122.978 73.7539 122.012 72.0799ZM84.807 148.639L51.6598 167.777C50.5598 168.412 50.1829 169.819 50.818 170.919C51.4531 172.019 52.8598 172.396 53.9599 171.761L87.107 152.623C88.2071 151.988 88.584 150.581 87.9489 149.481C87.3138 148.381 85.9071 148.004 84.807 148.639ZM51.0598 166.738C49.3858 167.704 48.8123 169.845 49.7788 171.519C50.7453 173.193 52.8858 173.766 54.5599 172.8L87.707 153.662C89.3811 152.696 89.9546 150.555 88.9881 148.881C88.0216 147.207 85.8811 146.634 84.207 147.6L51.0598 166.738ZM109.056 134.639L134.171 120.139C135.271 119.504 136.677 119.881 137.312 120.981C137.947 122.081 137.571 123.488 136.471 124.123L111.356 138.623C110.256 139.258 108.849 138.881 108.214 137.781C107.579 136.681 107.956 135.274 109.056 134.639ZM107.175 138.381C106.208 136.707 106.782 134.567 108.456 133.6L133.571 119.1C135.245 118.134 137.385 118.707 138.352 120.381C139.318 122.055 138.745 124.196 137.071 125.162L111.956 139.662C110.282 140.629 108.141 140.055 107.175 138.381ZM173.944 97.176L143.697 114.639C142.597 115.274 142.22 116.681 142.855 117.781C143.49 118.881 144.897 119.258 145.997 118.623L176.244 101.16C177.344 100.525 177.721 99.1179 177.086 98.0179C176.451 96.9178 175.044 96.5409 173.944 97.176ZM143.097 113.6C141.423 114.567 140.849 116.707 141.816 118.381C142.782 120.055 144.923 120.629 146.597 119.662L176.844 102.199C178.518 101.232 179.092 99.0919 178.125 97.4179C177.159 95.7439 175.018 95.1703 173.344 96.1368L143.097 113.6ZM106.735 170.62L124.922 160.12C126.022 159.485 127.429 159.862 128.064 160.962C128.699 162.062 128.322 163.468 127.222 164.104L109.035 174.604C107.935 175.239 106.529 174.862 105.893 173.762C105.258 172.662 105.635 171.255 106.735 170.62ZM104.854 174.362C103.888 172.688 104.461 170.547 106.135 169.581L124.322 159.081C125.996 158.114 128.136 158.688 129.103 160.362C130.069 162.036 129.496 164.176 127.822 165.143L109.635 175.643C107.961 176.609 105.821 176.036 104.854 174.362ZM162.059 138.679L134.448 154.62C133.348 155.255 132.971 156.662 133.606 157.762C134.241 158.862 135.648 159.239 136.748 158.604L164.359 142.662C165.459 142.027 165.836 140.621 165.201 139.521C164.566 138.42 163.159 138.044 162.059 138.679ZM133.848 153.581C132.174 154.547 131.601 156.688 132.567 158.362C133.534 160.036 135.674 160.609 137.348 159.643L164.959 143.702C166.633 142.735 167.207 140.595 166.24 138.921C165.274 137.247 163.133 136.673 161.459 137.639L133.848 153.581ZM64.786 171.745L87.209 158.799C88.309 158.164 89.7157 158.541 90.3508 159.641C90.9859 160.741 90.609 162.148 89.509 162.783L67.086 175.729C65.9859 176.364 64.5793 175.987 63.9441 174.887C63.309 173.787 63.6859 172.38 64.786 171.745ZM62.9049 175.487C61.9384 173.813 62.512 171.673 64.186 170.706L86.609 157.76C88.283 156.794 90.4236 157.367 91.3901 159.041C92.3565 160.715 91.783 162.856 90.109 163.822L67.686 176.768C66.012 177.735 63.8714 177.161 62.9049 175.487ZM127.046 135.799L96.7353 153.299C95.6352 153.935 95.2583 155.341 95.8934 156.441C96.5285 157.541 97.9352 157.918 99.0353 157.283L129.346 139.783C130.446 139.148 130.823 137.741 130.188 136.641C129.553 135.541 128.146 135.164 127.046 135.799ZM96.1353 152.26C94.4612 153.227 93.8877 155.367 94.8542 157.041C95.8207 158.715 97.9612 159.289 99.6353 158.322L129.946 140.822C131.62 139.856 132.194 137.715 131.227 136.041C130.261 134.367 128.12 133.794 126.446 134.76L96.1353 152.26ZM136.572 130.299L171.786 109.969C172.886 109.334 174.293 109.711 174.928 110.811C175.563 111.911 175.186 113.318 174.086 113.953L138.872 134.283C137.772 134.918 136.366 134.541 135.731 133.441C135.095 132.341 135.472 130.935 136.572 130.299ZM134.691 134.041C133.725 132.367 134.298 130.227 135.972 129.26L171.186 108.93C172.86 107.963 175.001 108.537 175.967 110.211C176.934 111.885 176.36 114.025 174.686 114.992L139.472 135.322C137.798 136.289 135.658 135.715 134.691 134.041ZM115.592 153.96L78.2369 175.527C77.1369 176.162 76.76 177.568 77.3951 178.668C78.0302 179.768 79.4369 180.145 80.5369 179.51L117.892 157.943C118.992 157.308 119.369 155.902 118.734 154.802C118.098 153.702 116.692 153.325 115.592 153.96ZM77.6369 174.487C75.9629 175.454 75.3894 177.594 76.3559 179.268C77.3224 180.942 79.4629 181.516 81.1369 180.549L118.492 158.983C120.166 158.016 120.739 155.876 119.773 154.202C118.806 152.528 116.666 151.954 114.992 152.921L77.6369 174.487ZM125.118 148.46L156.295 130.46C157.395 129.825 158.802 130.201 159.437 131.302C160.072 132.402 159.695 133.808 158.595 134.443L127.418 152.443C126.318 153.078 124.911 152.702 124.276 151.602C123.641 150.501 124.018 149.095 125.118 148.46ZM123.237 152.202C122.27 150.527 122.844 148.387 124.518 147.42L155.695 129.42C157.369 128.454 159.509 129.027 160.476 130.701C161.442 132.376 160.869 134.516 159.195 135.483L128.018 153.483C126.344 154.449 124.203 153.876 123.237 152.202ZM169.67 122.737L165.821 124.96C164.721 125.595 164.344 127.001 164.979 128.101C165.614 129.202 167.021 129.578 168.121 128.943L171.97 126.721C173.07 126.086 173.447 124.679 172.812 123.579C172.177 122.479 170.77 122.102 169.67 122.737ZM165.221 123.92C163.547 124.887 162.974 127.027 163.94 128.701C164.907 130.376 167.047 130.949 168.721 129.983L172.57 127.76C174.244 126.794 174.818 124.653 173.851 122.979C172.885 121.305 170.744 120.732 169.07 121.698L165.221 123.92ZM94.3333 143.139L99.5295 140.139C100.63 139.504 102.036 139.881 102.671 140.981C103.306 142.081 102.93 143.488 101.829 144.123L96.6333 147.123C95.5333 147.758 94.1266 147.381 93.4915 146.281C92.8564 145.181 93.2333 143.774 94.3333 143.139ZM92.4523 146.881C91.4858 145.207 92.0593 143.067 93.7333 142.1L98.9295 139.1C100.604 138.134 102.744 138.707 103.711 140.381C104.677 142.055 104.104 144.196 102.429 145.162L97.2333 148.162C95.5593 149.129 93.4188 148.555 92.4523 146.881Z" fill="white"/>
</g>
</g>
</g>
</svg>
